<?xml version="1.0" encoding="UTF-8"?>
<svg id="Layer_1" data-name="Layer 1" xmlns="http://www.w3.org/2000/svg" viewBox="0 0 464.16 465.31">
  <defs>
    <style>
      .cls-1 {
        fill: #f5c1bc;
      }

      .cls-2 {
        fill: #394a9a;
      }

      .cls-3 {
        fill: #fefeff;
      }
    </style>
  </defs>
  <path class="cls-3" d="M36.35,430.6c6.77,6.56,18.34,11.39,27.74,11.98,113.87-.47,227.87.85,341.66-.66,20.55-4.88,33.31-18.14,35.84-39.51V64.17c-2.1-24.03-19.96-40.11-43.81-41.54H66.82c-24.03,1.53-42.8,18.4-44.26,42.9v331.43c.54,12.17,4.93,25.04,13.8,33.64Z"/>
  <path class="cls-2" d="M36.35,430.6c-8.87-8.6-13.25-21.47-13.8-33.64V65.54c1.46-24.5,20.23-41.37,44.26-42.9h330.98c23.84,1.43,41.71,17.5,43.81,41.54v338.24c-2.54,21.37-15.3,34.64-35.85,39.51-113.79,1.51-227.79.19-341.66.66-9.4-.59-20.97-5.42-27.74-11.98ZM261.81,83.94c-39.58-1.37-79.95,1.02-119.61,0-14.97,1.68-25.1,12.42-26.13,27.44.48,78.15-.86,156.46.68,234.51,1.82,11.09,14.13,22.22,25.44,22.22h96.47l-59.91-60.16c-4.88-5.76-6.95-15.68-2.07-22.01,2.83-3.68,19.02-19.61,22.63-21.41,5.94-2.96,13.03-2.16,18.23,1.91l34.04,34.06,1.14.23,86.47-86.51.24-53.56c.07-2.63-.9-5.22-2.49-7.27l-66.73-66.73c-3.47-2.88-4.07-2.56-8.41-2.71ZM355.23,223.41c-1.18.14-2.69.63-3.54,1.47l-94.29,94.11c-2.74,1.16-5.02,1.23-7.62-.35l-40.15-40.2c-1.87-1.62-3.83-1.07-5.7.24-2.25,1.59-12.82,12.22-14.53,14.52-1.05,1.41-1.52,2.26-.92,4.12l60.86,61.26c3.92,2.81,9.66,2.38,13.17-.9l111.63-111.26c1.8-2.6,1.66-5.84-.2-8.36-1.14-1.55-12.06-12.6-13.37-13.41s-3.8-1.41-5.34-1.24ZM272.25,368.12h39.27c12.11,0,27.46-12.61,27.46-25.19v-41.54l-66.73,66.73Z"/>
  <path class="cls-3" d="M261.81,83.94l.06,50.11c1.85,14.35,12.94,25.33,27.42,26.6h50.16s-.24,53.57-.24,53.57l-86.47,86.51-1.14-.23-34.04-34.06c-5.2-4.06-12.29-4.86-18.23-1.91-3.61,1.8-19.8,17.73-22.63,21.41-4.88,6.33-2.81,16.25,2.07,22.01l59.91,60.16h-96.47c-11.31,0-23.63-11.13-25.44-22.22-1.54-78.05-.2-156.36-.68-234.51,1.03-15.02,11.16-25.75,26.13-27.44,39.67,1.02,80.03-1.38,119.61,0ZM155.01,148.51c-8.56,2.41-8.05,14.2.84,15.74l80.32.05c8.58-1.7,9.21-13.8.42-15.87l-81.58.08ZM276.66,185.32l-120.85-.15c-9.37,1.49-9.24,14.8.45,15.89h118.94c6.17-.36,9.39-8.57,5.44-13.16-1.06-1.24-3.2-1.52-3.99-2.58ZM251.67,234.5c3.63-3.64,2.3-11.27-2.77-13.03l-93.08-.43c-7.86.85-9.42,11.4-2.6,14.86l93.87.6c1.37.01,3.65-1.05,4.59-1.99Z"/>
  <path class="cls-1" d="M355.23,223.41c1.54-.18,4,.42,5.34,1.24s12.23,11.85,13.37,13.41c1.85,2.52,2,5.77.2,8.36l-111.63,111.26c-3.51,3.28-9.25,3.7-13.17.9l-60.86-61.26c-.6-1.86-.13-2.71.92-4.12,1.71-2.3,12.28-12.94,14.53-14.52,1.86-1.31,3.83-1.86,5.7-.24l40.15,40.2c2.6,1.58,4.88,1.51,7.62.35l94.29-94.11c.86-.84,2.36-1.33,3.54-1.47Z"/>
  <path class="cls-1" d="M339.44,160.66h-50.16c-14.47-1.29-25.57-12.26-27.42-26.61l-.06-50.11c4.33.15,4.93-.16,8.41,2.71l66.73,66.73c1.58,2.06,2.55,4.65,2.49,7.27Z"/>
  <path class="cls-3" d="M272.25,368.12l66.73-66.73v41.54c0,12.59-15.35,25.19-27.46,25.19h-39.27Z"/>
  <path class="cls-2" d="M276.66,185.32c.79,1.06,2.92,1.34,3.99,2.58,3.94,4.59.72,12.8-5.44,13.16h-118.94c-9.69-1.09-9.82-14.41-.45-15.89l120.85.15Z"/>
  <path class="cls-2" d="M251.67,234.5c-.94.94-3.22,2.01-4.59,1.99l-93.87-.6c-6.82-3.47-5.26-14.01,2.6-14.86l93.08.43c5.07,1.76,6.41,9.39,2.77,13.03Z"/>
  <path class="cls-2" d="M155.01,148.51l81.58-.08c8.8,2.07,8.16,14.17-.42,15.87l-80.32-.05c-8.88-1.54-9.4-13.33-.84-15.74Z"/>
</svg>